HIERARCHY
ROOT Hips
{
 OFFSET 0.000000 0.000000 0.000000
 CHANNELS 6 Xposition Yposition Zposition Yrotation Xrotation Zrotation
 JOINT Chest
 {
  OFFSET 0.000000 14.634200 -0.016200
  CHANNELS 3 Yrotation Xrotation Zrotation
  JOINT Chest2
  {
   OFFSET 0.000000 8.932900 0.033000
   CHANNELS 3 Yrotation Xrotation Zrotation
   JOINT Chest3
   {
    OFFSET 0.000000 8.892300 0.000000
    CHANNELS 3 Yrotation Xrotation Zrotation
    JOINT Chest4
    {
     OFFSET 0.000000 8.883200 0.000000
     CHANNELS 3 Yrotation Xrotation Zrotation
     JOINT Neck
     {
      OFFSET 0.000000 13.173600 0.000000
      CHANNELS 3 Yrotation Xrotation Zrotation
      JOINT Head
      {
       OFFSET 0.000000 8.324600 0.069800
       CHANNELS 3 Yrotation Xrotation Zrotation
       End Site
       {
        OFFSET 0.000000 15.692400 0.036900
       }
      }
     }
     JOINT RightCollar
     {
      OFFSET -2.619200 8.772200 0.000000
      CHANNELS 3 Yrotation Xrotation Zrotation
      JOINT RightShoulder
      {
       OFFSET -12.922000 0.000000 0.000000
       CHANNELS 3 Yrotation Xrotation Zrotation
       JOINT RightElbow
       {
        OFFSET 0.000000 -27.880900 0.000000
        CHANNELS 3 Yrotation Xrotation Zrotation
        JOINT RightWrist
        {
         OFFSET 0.000000 -22.758700 0.008200
         CHANNELS 3 Yrotation Xrotation Zrotation
         End Site
         {
          OFFSET 0.000000 -16.965000 0.000000
         }
        }
       }
      }
     }
     JOINT LeftCollar
     {
      OFFSET 2.619200 8.772200 0.000000
      CHANNELS 3 Yrotation Xrotation Zrotation
      JOINT LeftShoulder
      {
       OFFSET 12.922000 0.000000 0.000000
       CHANNELS 3 Yrotation Xrotation Zrotation
       JOINT LeftElbow
       {
        OFFSET 0.000000 -27.880900 0.000000
        CHANNELS 3 Yrotation Xrotation Zrotation
        JOINT LeftWrist
        {
         OFFSET 0.000000 -22.758700 0.008200
         CHANNELS 3 Yrotation Xrotation Zrotation
         End Site
         {
          OFFSET 0.000000 -16.965000 0.000000
         }
        }
       }
      }
     }
    }
   }
  }
 }
 JOINT RightHip
 {
  OFFSET -12.026800 0.080100 0.008100
  CHANNELS 3 Yrotation Xrotation Zrotation
  JOINT RightKnee
  {
   OFFSET 0.000000 -42.600800 -0.000200
   CHANNELS 3 Yrotation Xrotation Zrotation
   JOINT RightAnkle
   {
    OFFSET 0.000000 -38.219300 0.054300
    CHANNELS 3 Yrotation Xrotation Zrotation
    JOINT RightToe
    {
     OFFSET 0.000000 -9.685800 15.804700
     CHANNELS 3 Yrotation Xrotation Zrotation
     End Site
     {
      OFFSET 0.000000 -1.422300 5.761700
     }
    }
   }
  }
 }
 JOINT LeftHip
 {
  OFFSET 12.026800 0.080100 0.008100
  CHANNELS 3 Yrotation Xrotation Zrotation
  JOINT LeftKnee
  {
   OFFSET 0.000000 -42.600800 -0.000200
   CHANNELS 3 Yrotation Xrotation Zrotation
   JOINT LeftAnkle
   {
    OFFSET 0.000000 -38.219300 0.054300
    CHANNELS 3 Yrotation Xrotation Zrotation
    JOINT LeftToe
    {
     OFFSET 0.000000 -9.685800 15.804700
     CHANNELS 3 Yrotation Xrotation Zrotation
     End Site
     {
      OFFSET 0.000000 -1.422300 5.761700
     }
    }
   }
  }
 }
}
MOTION
Frames: 9
Frame Time: 0.008333
0.000000 90.254400 0.000000 0.000000 -5.767877 0.000000 0.000000 11.653817 0.000000 0.000000 -5.885947 0.000000 0.000000 -0.000000 0.000000 0.000000 -0.000000 0.000000 0.000000 12.528835 0.000000 0.000000 0.711642 0.000000 0.000000 -0.000000 0.000000 0.000000 0.000000 -90.000000 0.000000 -2.309062 0.000000 0.000000 2.309062 0.000000 0.000000 -0.000000 0.000000 0.000000 -0.000000 90.000000 0.000000 -2.309062 0.000000 0.000000 2.309062 0.000000 0.000000 8.520406 0.000000 0.000000 1.905762 0.000000 -0.000000 -4.658285 0.000000 0.000000 -0.000000 0.000000 0.000000 8.520406 0.000000 0.000000 1.905762 0.000000 -0.000000 -4.658285 0.000000 0.000000 -0.000000 0.000000
-5.115264 151.685085 10.127894 170.609664 -20.959949 0.282329 1.359191 20.517945 0.249283 0.170016 2.614955 0.028398 0.268365 4.290105 0.049947 1.184979 17.591812 0.347995 -0.676933 8.256310 0.507118 -0.861421 -16.996628 0.733194 5.116883 -3.554001 -2.625753 15.968075 -23.529736 -3.500709 17.573193 -55.720100 1.139065 18.514745 -5.470836 -66.547826 -7.980803 -3.276105 -1.055651 -0.392303 -23.794793 1.725904 -0.054771 -60.197489 -21.111764 -14.549328 -4.269825 38.069524 -1.139564 -52.410575 12.808577 -35.829968 78.907796 -41.950427 -0.302938 -9.186552 5.524579 0.048959 -0.130611 0.029222 18.443687 -50.915716 -21.877876 82.123189 74.919243 91.150254 6.160967 -2.242517 -5.739658 0.055768 -3.330235 1.030280
-6.818160 144.609128 13.523644 170.610870 -20.966096 0.209075 1.386934 20.520946 0.327807 0.175277 2.610524 0.029740 0.269457 4.288500 0.048240 1.190349 17.589405 0.347493 -0.685025 8.246910 0.520976 -0.863606 -17.007278 0.744059 5.110688 -3.556908 -2.621434 15.955474 -23.527022 -3.491669 17.482931 -55.729184 1.209376 18.482598 -5.543394 -66.700931 -7.993147 -3.282007 -1.051427 -0.413232 -23.790802 1.741075 -0.050621 -60.187220 -21.091489 -14.542559 -4.309484 38.115674 -1.238579 -52.409815 12.932052 -35.868332 78.915965 -41.992463 -0.278578 -9.244854 5.542209 0.019146 -0.077709 0.011731 18.352448 -50.926386 -21.760851 82.092607 74.923148 91.119726 6.204090 -2.190849 -5.710729 0.042493 0.062358 0.026050
-8.226554 138.781747 16.320023 170.623085 -20.969514 0.168681 1.396713 20.519535 0.370720 0.171175 2.611277 0.029004 0.279313 4.277349 0.051703 1.185934 17.597590 0.346501 -0.679951 8.220669 0.536394 -0.873661 -17.004584 0.748236 5.106617 -3.564643 -2.622872 15.946293 -23.524675 -3.481051 17.453881 -55.723960 1.232980 18.424778 -5.616945 -66.857355 -7.991940 -3.308571 -1.055641 -0.438491 -23.772213 1.755960 -0.036784 -60.173167 -21.091385 -14.536782 -4.343190 38.173205 -1.299227 -52.410997 12.993916 -35.896281 78.921714 -42.021565 -0.272522 -9.270941 5.547501 0.012362 -0.051898 0.007575 18.295518 -50.930285 -21.701572 82.067106 74.925320 91.095910 6.214430 -2.162152 -5.701955 0.028415 0.039877 0.017418
-9.239354 134.573303 18.340455 170.625164 -20.973978 0.125389 1.417104 20.506032 0.423026 0.167601 2.623953 0.025448 0.280515 4.270850 0.053645 1.198983 17.584590 0.352371 -0.692315 8.223907 0.542195 -0.877107 -16.998837 0.748604 5.093411 -3.555111 -2.625123 15.936693 -23.523575 -3.472211 17.274787 -55.730909 1.365518 18.451770 -5.672834 -66.988002 -8.006317 -3.295575 -1.061500 -0.449250 -23.782855 1.766900 -0.038265 -60.152820 -21.071246 -14.519026 -4.372853 38.204813 -1.357396 -52.408111 13.063337 -35.876716 78.922170 -41.999492 -0.262279 -9.292791 5.545142 0.003685 -0.021263 0.002258 18.241603 -50.934801 -21.637725 82.040868 74.920686 91.073518 6.231133 -2.131705 -5.690866 0.006269 0.014105 0.003843
-9.883344 131.915197 19.616985 170.625224 -20.974990 0.115989 1.424098 20.498021 0.436680 0.170100 2.612948 0.028456 0.276118 4.284838 0.049977 1.204202 17.578614 0.352843 -0.693507 8.209830 0.551805 -0.882880 -16.987033 0.749225 5.088940 -3.559084 -2.624656 15.922380 -23.521075 -3.457975 17.154612 -55.728418 1.459249 18.449380 -5.733440 -67.125711 -8.010869 -3.294593 -1.061910 -0.449043 -23.780530 1.768463 -0.048024 -60.143730 -21.050549 -14.494971 -4.416543 38.250905 -1.374559 -52.406976 13.078392 -35.846466 78.923594 -41.966774 -0.261109 -9.296123 5.536650 0.002982 -0.012781 0.001827 18.227177 -50.933642 -21.623967 82.019483 74.914090 91.052358 6.231413 -2.121132 -5.687766 0.001092 0.006900 0.000669
-10.236814 130.453452 20.319598 170.627008 -20.977616 0.108359 1.431834 20.491668 0.447105 0.166399 2.616615 0.028839 0.276408 4.283603 0.050235 1.204035 17.580623 0.352432 -0.690228 8.193561 0.555759 -0.891545 -16.993330 0.762326 5.088446 -3.571390 -2.625450 15.911016 -23.511697 -3.443583 17.107399 -55.725202 1.496114 18.399530 -5.807464 -67.275311 -8.009394 -3.311698 -1.066864 -0.431949 -23.789948 1.782644 -0.030206 -60.098437 -21.066678 -14.478665 -4.494864 38.306186 -1.401162 -52.397924 13.095206 -35.829694 78.920041 -41.952972 -0.250803 -9.303843 5.527898 0.000890 -0.006127 0.000545 18.214763 -50.931366 -21.611295 82.003958 74.912109 91.036468 6.245614 -2.114198 -5.693509 0.002727 0.003100 0.001671
-10.405406 129.757708 20.654315 170.628727 -20.982578 0.106936 1.439898 20.488252 0.450344 0.160690 2.619871 0.030368 0.280300 4.276481 0.050617 1.207768 17.577145 0.353131 -0.692289 8.188657 0.559203 -0.901395 -16.997101 0.774015 5.079605 -3.572808 -2.622242 15.907305 -23.508929 -3.431970 17.046756 -55.712880 1.540639 18.346910 -5.896966 -67.436608 -8.021850 -3.319245 -1.066958 -0.422808 -23.774219 1.783206 -0.037629 -60.089735 -21.051874 -14.462852 -4.566393 38.361081 -1.417156 -52.389369 13.104658 -35.820491 78.920540 -41.949643 -0.249144 -9.308352 5.524059 0.000911 -0.004515 0.000558 18.208064 -50.925774 -21.606478 81.996032 74.911191 91.027962 6.244071 -2.111753 -5.691564 0.002859 0.001479 0.001752
-10.474477 129.473231 20.792140 170.634956 -20.986163 0.106084 1.442330 20.483512 0.451434 0.163576 2.618052 0.028071 0.281016 4.274330 0.050288 1.211129 17.572983 0.351711 -0.693918 8.184329 0.570599 -0.904223 -17.030083 0.793166 5.067463 -3.573814 -2.610058 15.904032 -23.497850 -3.424660 16.789607 -55.729444 1.747124 18.402417 -5.985217 -67.609570 -8.034597 -3.324355 -1.056768 -0.415909 -23.759233 1.780133 -0.060243 -60.089469 -21.020354 -14.444219 -4.641787 38.414756 -1.432091 -52.380981 13.110551 -35.805431 78.919200 -41.941233 -0.249964 -9.310371 5.522808 0.001595 -0.004012 0.000977 18.203014 -50.921338 -21.609895 81.984832 74.904064 91.017141 6.237363 -2.108652 -5.687942 0.001993 0.002065 0.001221
